# xmcd CD database file
#
# Track frame offsets:
#	150
#	9592
#	30325
#	53672
#	67215
#	84822
#	102820
#	119322
#	138095
#	159365
#	178217
#	194132
#	212987
#	229440
#
# Disc length: 3356 seconds
#
# Revision: 0
# Processed by: cddbd v1.5.2PL0 Copyright (c) Steve Scherf et al.
# Submitted via: CDex 2.13
#
DISCID=be0d1a0e
DTITLE=Various Artist - Santa Cruz Blues - After Hours
DYEAR=1998
DGENRE=Blues
TTITLE0=West Coast Playboys w/ Junior Watson - Straighten Up Baby
TTITLE1=NiteCry - Lesson In The Blues
TTITLE2=Red Archibald and The Internationals - I Love It When You Fax Me
TTITLE3=Terry Hiatt - Horizontal Rhumba
TTITLE4=Steve Kruse - Just Your Fool
TTITLE5=Jeffrey Halford and The Healers - On A Roll
TTITLE6=The Magnatones - Gotta Go On
TTITLE7=Dale Ockerman - Roses On The Piano, Tulips On The Organ
TTITLE8=Storm Nilson - Turning Me
TTITLE9=Red Beans and Rice - Big Automobile
TTITLE10=The Firebirds - You Took It All Back
TTITLE11=Stormin Norman and The Cyclones - All I Want Is You
TTITLE12=Tip On In - Little Boy Blue
TTITLE13=Steve Czarnecki's Soul Jazz Quintet
EXTD=YEAR: 1998
EXTT0=
EXTT1=
EXTT2=
EXTT3=
EXTT4=
EXTT5=
EXTT6=
EXTT7=
EXTT8=
EXTT9=
EXTT10=
EXTT11=
EXTT12=
EXTT13=
PLAYORDER=
